<svg width="18" height="4" viewBox="0 0 18 4" fill="none" xmlns="http://www.w3.org/2000/svg">
    <path fill-rule="evenodd" clip-rule="evenodd"
        d="M0 2.00266C0 1.60657 0.128867 1.21938 0.370306 0.89004C0.611745 0.560702 0.954911 0.304015 1.35641 0.152437C1.75791 0.0008601 2.1997 -0.0387995 2.62593 0.038474C3.05216 0.115748 3.44367 0.306483 3.75097 0.586562C4.05826 0.86664 4.26753 1.22348 4.35231 1.61196C4.43709 2.00044 4.39358 2.40311 4.22727 2.76905C4.06097 3.13499 3.77934 3.44777 3.418 3.66782C3.05666 3.88788 2.63184 4.00533 2.19727 4.00533C1.61451 4.00533 1.05563 3.79434 0.643564 3.41877C0.231497 3.04319 0 2.5338 0 2.00266H0ZM13.6128 2.00266C13.6128 1.60657 13.7417 1.21938 13.9831 0.89004C14.2245 0.560702 14.5677 0.304015 14.9692 0.152437C15.3707 0.0008601 15.8125 -0.0387995 16.2387 0.038474C16.665 0.115748 17.0565 0.306483 17.3638 0.586562C17.6711 0.86664 17.8803 1.22348 17.9651 1.61196C18.0499 2.00044 18.0064 2.40311 17.8401 2.76905C17.6738 3.13499 17.3921 3.44777 17.0308 3.66782C16.6695 3.88788 16.2446 4.00533 15.8101 4.00533C15.2273 4.00533 14.6684 3.79434 14.2564 3.41877C13.8443 3.04319 13.6128 2.5338 13.6128 2.00266ZM6.80566 2.00266C6.80566 1.60657 6.93453 1.21938 7.17597 0.89004C7.41741 0.560702 7.76057 0.304015 8.16207 0.152437C8.56357 0.0008601 9.00537 -0.0387995 9.43159 0.038474C9.85782 0.115748 10.2493 0.306483 10.5566 0.586562C10.8639 0.86664 11.0732 1.22348 11.158 1.61196C11.2428 2.00044 11.1992 2.40311 11.0329 2.76905C10.8666 3.13499 10.585 3.44777 10.2237 3.66782C9.86233 3.88788 9.43751 4.00533 9.00293 4.00533C8.42018 4.00533 7.8613 3.79434 7.44923 3.41877C7.03716 3.04319 6.80566 2.5338 6.80566 2.00266Z"
        fill="#4169E1" />
</svg>