<svg width="32" height="36" viewBox="0 0 32 36" fill="none" xmlns="http://www.w3.org/2000/svg">
    <path fill-rule="evenodd" clip-rule="evenodd"
        d="M0.532275 4.24253H6.9822L6.97366 4.1299V1.19276C6.97366 0.537176 7.64541 0 8.47086 0C9.29347 0 9.96806 0.540064 9.96806 1.19276V4.1299L9.95952 4.24253H20.9437L20.9352 4.1299V1.19276C20.9352 0.537176 21.607 0 22.4296 0C23.2522 0 23.9268 0.540064 23.9268 1.19276V4.1299L23.9182 4.24253H30.7809C31.074 4.24253 31.3131 4.48513 31.3131 4.78259V10.4027C31.3131 10.7002 31.074 10.9428 30.7809 10.9428H0.532275C0.239097 10.9399 0 10.6973 0 10.3998V4.77971C0 4.48224 0.239097 4.24253 0.532275 4.24253ZM0.13378 12.1846H31.1822C31.2562 12.1846 31.3131 12.2453 31.3131 12.3175V35.3525C31.3131 35.4247 31.2534 35.4854 31.1822 35.4854H0.13378C0.0626206 35.4854 0 35.4247 0 35.3525V12.3204C0 12.2453 0.0597742 12.1846 0.13378 12.1846ZM27.6868 15.2373H23.7873C23.551 15.2373 23.3603 15.4192 23.3603 15.6416V19.321C23.3603 19.5434 23.551 19.7253 23.7873 19.7253H27.6897C27.9259 19.7253 28.1195 19.5434 28.1195 19.321V15.6416C28.1166 15.4192 27.9231 15.2373 27.6868 15.2373ZM3.48398 21.6401H7.38354C7.61979 21.6401 7.81334 21.822 7.81334 22.0444V25.7238C7.81334 25.9462 7.61979 26.1281 7.38354 26.1281H3.61776C3.38151 26.1281 3.1908 25.9462 3.1908 25.7238V21.9116C3.1908 21.6892 3.38436 21.5072 3.61776 21.5072L3.48398 21.6401ZM3.48398 28.0458H7.38354C7.61979 28.0458 7.81334 28.2277 7.81334 28.4501V32.1294C7.81334 32.3518 7.61979 32.5338 7.38354 32.5338H3.61492C3.37867 32.5338 3.18796 32.3518 3.18796 32.1294V28.4501C3.18796 28.2277 3.38151 28.0458 3.61492 28.0458H3.48398ZM3.48398 15.2373H7.38354C7.61979 15.2373 7.81334 15.4192 7.81334 15.6416V19.321C7.81334 19.5434 7.61979 19.7253 7.38354 19.7253H3.61492C3.37867 19.7253 3.18796 19.5434 3.18796 19.321V15.6416C3.18796 15.4192 3.38151 15.2373 3.61492 15.2373H3.48398ZM10.2527 15.2373H14.1551C14.3914 15.2373 14.5821 15.4192 14.5821 15.6416V19.321C14.5821 19.5434 14.3885 19.7253 14.1551 19.7253H10.2527C10.0164 19.7253 9.82289 19.5434 9.82289 19.321V15.6416C9.82289 15.4192 10.0164 15.2373 10.2527 15.2373ZM10.2527 21.6401H14.1551C14.3914 21.6401 14.5821 21.822 14.5821 22.0444V25.7238C14.5821 25.9462 14.3885 26.1281 14.1551 26.1281H10.2527C10.0164 26.1281 9.82289 25.9462 9.82289 25.7238V21.9116C9.82289 21.6892 10.0164 21.5072 10.2527 21.5072V21.6401ZM10.2527 28.0458H14.1551C14.3914 28.0458 14.5821 28.2277 14.5821 28.4501V32.1294C14.5821 32.3518 14.3885 32.5338 14.1551 32.5338H10.2527C10.0164 32.5338 9.82289 32.3518 9.82289 32.1294V28.4501C9.82289 28.2277 10.0164 28.0458 10.2527 28.0458ZM17.0186 15.2373H20.921C21.1572 15.2373 21.3508 15.4192 21.3508 15.6416V19.321C21.3508 19.5434 21.1572 19.7253 20.921 19.7253H17.0186C16.7823 19.7253 16.5888 19.5434 16.5888 19.321V15.6416C16.5916 15.4192 16.7823 15.2373 17.0186 15.2373ZM17.0186 21.6401H20.921C21.1572 21.6401 21.3508 21.822 21.3508 22.0444V25.7238C21.3508 25.9462 21.1572 26.1281 20.921 26.1281H17.0186C16.7823 26.1281 16.5888 25.9462 16.5888 25.7238V21.9116C16.5888 21.6892 16.7823 21.5072 17.0186 21.5072V21.6401ZM27.6868 21.6401H23.7873C23.551 21.6401 23.3603 21.822 23.3603 22.0444V25.7238C23.3603 25.9462 23.551 26.1281 23.7873 26.1281H27.6897C27.9259 26.1281 28.1195 25.9462 28.1195 25.7238V21.9087C28.1195 21.6863 27.9259 21.5043 27.6897 21.5043L27.6868 21.6401ZM27.6868 28.0458H23.7873C23.551 28.0458 23.3603 28.2277 23.3603 28.4501V32.1294C23.3603 32.3518 23.551 32.5338 23.7873 32.5338H27.6897C27.9259 32.5338 28.1195 32.3518 28.1195 32.1294V28.3143C28.1195 28.092 27.9259 27.91 27.6897 27.91L27.6868 28.0458ZM17.0186 28.0458H20.921C21.1572 28.0458 21.3508 28.2277 21.3508 28.4501V32.1294C21.3508 32.3518 21.1572 32.5338 20.921 32.5338H17.0186C16.7823 32.5338 16.5888 32.3518 16.5888 32.1294V28.4501C16.5916 28.2277 16.7823 28.0458 17.0186 28.0458ZM1.99532 13.7788H29.5825C29.7306 13.7788 29.8501 13.9059 29.8501 14.0503V33.6226C29.8501 33.767 29.7249 33.894 29.5825 33.894H1.73061C1.58829 33.894 1.46304 33.7727 1.46304 33.6226V14.3189C1.46304 14.0214 1.70214 13.7788 1.99532 13.7788ZM22.4296 8.49084C23.2522 8.49084 23.9268 7.95078 23.9268 7.29808V4.36383L23.9182 4.24542H20.9437L20.9352 4.36383V7.29808C20.9352 7.95366 21.607 8.49084 22.4296 8.49084ZM8.47086 8.49084C9.29347 8.49084 9.96806 7.95078 9.96806 7.29808V4.36383L9.95952 4.24542H6.9822L6.97366 4.36383V7.29808C6.97366 7.95366 7.64541 8.49084 8.47086 8.49084Z"
        fill="black" />
</svg>