<svg width="36" height="34" viewBox="0 0 36 34" fill="none" xmlns="http://www.w3.org/2000/svg">
    <path fill-rule="evenodd" clip-rule="evenodd"
        d="M23.1592 24.1419C21.8482 25.5624 20.3367 26.7911 18.6709 27.7905C18.5676 27.8663 18.4431 27.9092 18.3142 27.9133C18.1853 27.9174 18.0583 27.8826 17.9502 27.8135C15.5785 26.3411 13.4726 24.4916 11.7188 22.3406C9.42773 19.538 7.99512 16.4304 7.50586 13.4379C7.00781 10.4022 7.47363 7.48157 9.01172 5.10769C9.63881 4.14785 10.4239 3.29701 11.335 2.58993C13.5059 0.880739 15.9814 -0.0170202 18.457 0.000244397C20.9692 0.041883 23.3739 1.00817 25.1953 2.70791C25.8966 3.33907 26.5032 4.06469 26.9971 4.86311C28.6494 7.53912 29.0068 10.9518 28.2803 14.4104C27.4753 18.0412 25.7041 21.3972 23.1475 24.1362L23.1592 24.1419ZM7.41797 21.6357C7.56056 21.6283 7.70319 21.6495 7.83718 21.698C7.97116 21.7465 8.09368 21.8212 8.19728 21.9178C8.30088 22.0143 8.38338 22.1305 8.43976 22.2594C8.49614 22.3882 8.52522 22.527 8.52522 22.6672C8.52522 22.8075 8.49614 22.9462 8.43976 23.0751C8.38338 23.2039 8.30088 23.3202 8.19728 23.4167C8.09368 23.5132 7.97116 23.588 7.83718 23.6365C7.70319 23.685 7.56056 23.7062 7.41797 23.6988H5.44336L2.84473 31.9398H33.082L30.2607 23.6902H28.6289C28.4863 23.6976 28.3437 23.6764 28.2097 23.6279C28.0757 23.5794 27.9532 23.5046 27.8496 23.4081C27.746 23.3115 27.6635 23.1953 27.6071 23.0665C27.5507 22.9376 27.5217 22.7988 27.5217 22.6586C27.5217 22.5184 27.5507 22.3796 27.6071 22.2507C27.6635 22.1219 27.746 22.0056 27.8496 21.9091C27.9532 21.8126 28.0757 21.7378 28.2097 21.6893C28.3437 21.6408 28.4863 21.6196 28.6289 21.627H31.7637L36 34H0L3.90234 21.627L7.41797 21.6357ZM17.9824 4.87462L11.7451 10.687L13.21 11.4467L17.9414 6.77948L22.7432 11.4467L24.208 10.687L17.9824 4.87462ZM13.7373 12.2754L17.9883 8.10022L22.2275 12.2754V16.3728H19.1309V13.4954H16.8076V16.3728H13.7373V12.2754Z"
        fill="black" />
</svg>