<svg width="21" height="28" viewBox="0 0 21 28" fill="none" xmlns="http://www.w3.org/2000/svg">
<path fill-rule="evenodd" clip-rule="evenodd" d="M10.5007 5.48715C11.5219 5.48715 12.5201 5.79117 13.3692 6.36077C14.2183 6.93037 14.8801 7.73996 15.2709 8.68717C15.6617 9.63437 15.7639 10.6767 15.5647 11.6822C15.3655 12.6878 14.8737 13.6114 14.1516 14.3364C13.4296 15.0613 12.5096 15.555 11.508 15.7551C10.5064 15.9551 9.46827 15.8524 8.52481 15.4601C7.58136 15.0677 6.77497 14.4033 6.20763 13.5508C5.64029 12.6984 5.33747 11.6962 5.33747 10.6709C5.33747 9.29609 5.88145 7.97758 6.84974 7.00543C7.81803 6.03329 9.13132 5.48715 10.5007 5.48715ZM10.8094 26.3634C12.1792 25.4747 13.4281 24.4108 14.5246 23.1985C16.8479 20.6601 18.4582 17.5479 19.1908 14.1799C19.8285 11.0651 19.5312 8.02776 18.1128 5.67171C17.7008 4.99077 17.1941 4.37235 16.608 3.83518C14.8923 2.26297 12.9359 1.51331 10.9455 1.49509C8.86662 1.47914 6.75594 2.27892 4.89037 3.75999C4.12042 4.37066 3.4583 5.10704 2.93175 5.93831C1.62222 8.00953 1.22731 10.5798 1.65853 13.2708C2.09882 16.005 3.397 18.8783 5.46456 21.4736C6.98129 23.3734 8.78469 25.0233 10.8094 26.3634ZM15.6299 24.2079C14.3457 25.6244 12.8688 26.8517 11.2428 27.8536C11.1219 27.9434 10.9767 27.9943 10.8264 27.9995C10.6761 28.0048 10.5277 27.9643 10.4008 27.8833C8.07822 26.4124 6.01511 24.5644 4.29574 22.4147C2.07159 19.6098 0.664466 16.4904 0.187861 13.5054C-0.302362 10.4567 0.158357 7.51964 1.66988 5.13397C2.28696 4.16231 3.06176 3.30125 3.96212 2.58652C6.09323 0.88215 8.53299 -0.0201652 10.9591 0.000341952C13.299 0.0208491 15.6117 0.893543 17.6112 2.73463C18.3032 3.36864 18.9009 4.09917 19.386 4.90383C21.0087 7.59255 21.3628 11.0172 20.6501 14.4852C19.8634 18.1172 18.1311 21.4745 15.6299 24.2147V24.2079Z" fill="#4169E1"/>
</svg>
