<svg width="35" height="36" viewBox="0 0 35 36" fill="none" xmlns="http://www.w3.org/2000/svg">
<path d="M17.4999 -1.27968e-05C21.5502 -0.00120362 25.4756 1.44223 28.6071 4.08431C31.7386 6.7264 33.8826 10.4036 34.6736 14.4894C35.4646 18.5752 34.8537 22.8167 32.945 26.4911C31.0363 30.1655 27.9479 33.0454 24.2062 34.6402C20.4644 36.235 16.3008 36.4458 12.4248 35.2369C8.54883 34.0279 5.20036 31.4739 2.94998 28.0101C0.699595 24.5463 -0.313434 20.3871 0.083517 16.2412C0.480468 12.0952 2.26283 8.21914 5.12689 5.27343C6.74949 3.5989 8.678 2.27092 10.8015 1.36589C12.9249 0.460869 15.2014 -0.00333633 17.4999 -1.27968e-05ZM14.0364 20.9033C14.1105 20.2646 12.2619 17.8154 11.9258 16.6435C11.2023 15.4717 10.946 13.5791 11.7321 12.3281C12.0483 11.833 11.9116 11.4023 11.9116 10.7139C11.9116 3.90526 23.5042 3.90526 23.5042 10.7139C23.5042 11.5752 23.3133 11.7773 23.7662 12.4717C24.5239 13.6025 24.1336 15.6123 23.4814 16.6611C23.0712 17.8711 21.1458 20.2148 21.2796 20.9092C21.3993 24.4014 14.0165 24.2871 14.0364 20.9092V20.9033ZM5.20664 26.7832C6.13234 25.7285 7.79575 25.6816 9.81236 24.6269C10.5734 24.2305 11.3105 23.7873 12.0198 23.2998C14.3611 26.2529 16.2923 29.499 15.6599 33.2754C16.2685 33.353 16.8811 33.3921 17.4942 33.3926C17.6509 33.3926 17.8047 33.3926 17.9614 33.3926C17.8189 28.957 20.3482 25.7139 23.0285 22.9541C24.4005 23.8893 25.882 24.6424 27.4377 25.1953C28.7536 25.6465 29.5426 25.9365 30.0012 26.4551C31.4971 24.1211 32.3468 21.4121 32.4591 18.619C32.5714 15.8258 31.942 13.054 30.6386 10.6009C29.3351 8.14786 27.4068 6.10622 25.0606 4.69516C22.7143 3.2841 20.0388 2.55689 17.3211 2.59159C14.6034 2.62629 11.9463 3.42159 9.63481 4.89212C7.32335 6.36266 5.44488 8.4529 4.20103 10.9385C2.95718 13.4241 2.39492 16.2112 2.57459 19.0006C2.75427 21.79 3.6691 24.4764 5.22088 26.7715L5.20664 26.7832Z" fill="black"/>
</svg>
